%
M48
M72
T01C0.0120
T02C0.0150
T03C0.0256
%
T01
X5495Y3550
X15195Y3550
X24895Y3550
X34595Y3550
X44295Y3550
X53995Y3550
X63695Y3550
X73395Y3550
X83095Y3550
X83095Y10250
X73395Y10250
X63695Y10250
X53995Y10250
X44295Y10250
X34595Y10250
X24895Y10250
X15195Y10250
X5495Y10250
X5495Y16950
X15195Y16950
X24895Y16950
X34595Y16950
X44295Y16950
X53995Y16950
X63695Y16950
X73395Y16950
X83095Y16950
X83095Y23650
X73395Y23650
X63695Y23650
X53995Y23650
X44295Y23650
X34595Y23650
X24895Y23650
X15195Y23650
X5495Y23650
X5495Y30350
X15195Y30350
X24895Y30350
X34595Y30350
X44295Y30350
X53995Y30350
X63695Y30350
X73395Y30350
X83095Y30350
X83095Y37050
X73395Y37050
X63695Y37050
X53995Y37050
X44295Y37050
X34595Y37050
X24895Y37050
X15195Y37050
X5495Y37050
T02
X4225Y3350
X6475Y3550
X6625Y4250
X6925Y5150
X6875Y5650
X6875Y6267
X6900Y6675
X8575Y6735
X9290Y6800
X9275Y7347
X9975Y8200
X11325Y8500
X9775Y9950
X9775Y10400
X8525Y10750
X8925Y11300
X10675Y11800
X10875Y12300
X11375Y12200
X9225Y12600
X9290Y13500
X9275Y14047
X8575Y13435
X6900Y13375
X6875Y12967
X6875Y12350
X6925Y11850
X6625Y10950
X6475Y10250
X4225Y10050
X6375Y9000
X6675Y7800
X4575Y8600
X4375Y6850
X8925Y4600
X8525Y4050
X9775Y3700
X9775Y3250
X10675Y5100
X10875Y5600
X11375Y5500
X9225Y5900
X14075Y6850
X16375Y7800
X16075Y9000
X14275Y8600
X13925Y10050
X16175Y10250
X16325Y10950
X18225Y10750
X18625Y11300
X19475Y10400
X19475Y9950
X21025Y8500
X19675Y8200
X18975Y7347
X18990Y6800
X18275Y6735
X18925Y5900
X18625Y4600
X18225Y4050
X16325Y4250
X16175Y3550
X13925Y3350
X16625Y5150
X16575Y5650
X16575Y6267
X16600Y6675
X20375Y5100
X20575Y5600
X21075Y5500
X23775Y6850
X26300Y6675
X26275Y6267
X26275Y5650
X26325Y5150
X26025Y4250
X25875Y3550
X27925Y4050
X29175Y3700
X29175Y3250
X28325Y4600
X28625Y5900
X30075Y5100
X30275Y5600
X30775Y5500
X28690Y6800
X27975Y6735
X28675Y7347
X29375Y8200
X30725Y8500
X29175Y9950
X29175Y10400
X27925Y10750
X28325Y11300
X30075Y11800
X30275Y12300
X30775Y12200
X28625Y12600
X28690Y13500
X28675Y14047
X27975Y13435
X26300Y13375
X26275Y12967
X26275Y12350
X26325Y11850
X26025Y10950
X25875Y10250
X23625Y10050
X25775Y9000
X26075Y7800
X23975Y8600
X20375Y11800
X20575Y12300
X21075Y12200
X18925Y12600
X18990Y13500
X18975Y14047
X18275Y13435
X16600Y13375
X16575Y12967
X16575Y12350
X16625Y11850
X14075Y13550
X16375Y14500
X14275Y15300
X16075Y15700
X13925Y16750
X16175Y16950
X16325Y17650
X18225Y17450
X18625Y18000
X19475Y17100
X19475Y16650
X21025Y15200
X19675Y14900
X23775Y13550
X26075Y14500
X23975Y15300
X25775Y15700
X23625Y16750
X25875Y16950
X26025Y17650
X26325Y18550
X26275Y19050
X26275Y19667
X26300Y20075
X27975Y20135
X28690Y20200
X28675Y20747
X29375Y21600
X30725Y21900
X33675Y22000
X35475Y22400
X35575Y23650
X35725Y24350
X36025Y25250
X35975Y25750
X35975Y26367
X36000Y26775
X37675Y26835
X38390Y26900
X38375Y27447
X39075Y28300
X40425Y28600
X38875Y30050
X38875Y30500
X37625Y30850
X38025Y31400
X39775Y31900
X39975Y32400
X40475Y32300
X38325Y32700
X38390Y33600
X38375Y34147
X37675Y33535
X36000Y33475
X35975Y33067
X35975Y32450
X36025Y31950
X35725Y31050
X35575Y30350
X35475Y29100
X35775Y27900
X33675Y28700
X33325Y30150
X30725Y28600
X29375Y28300
X28675Y27447
X28690Y26900
X27975Y26835
X28625Y26000
X30075Y25200
X30275Y25700
X30775Y25600
X28325Y24700
X27925Y24150
X29175Y23800
X29175Y23350
X26025Y24350
X25875Y23650
X25775Y22400
X23975Y22000
X26075Y21200
X23775Y20250
X21075Y18900
X20575Y19000
X20375Y18500
X18925Y19300
X18990Y20200
X18975Y20747
X18275Y20135
X16600Y20075
X16575Y19667
X16575Y19050
X16625Y18550
X14075Y20250
X16375Y21200
X14275Y22000
X16075Y22400
X16175Y23650
X16325Y24350
X18225Y24150
X18625Y24700
X19475Y23800
X19475Y23350
X19675Y21600
X21025Y21900
X23625Y23450
X26325Y25250
X26275Y25750
X26275Y26367
X26300Y26775
X23775Y26950
X26075Y27900
X25775Y29100
X23975Y28700
X23625Y30150
X25875Y30350
X26025Y31050
X26325Y31950
X26275Y32450
X26275Y33067
X26300Y33475
X26075Y34600
X27975Y33535
X28690Y33600
X28675Y34147
X29375Y35000
X30725Y35300
X29175Y36750
X29175Y37200
X27925Y37550
X28325Y38100
X30075Y38600
X30275Y39100
X30775Y39000
X28625Y39400
X28690Y40300
X28675Y40847
X27975Y40235
X26300Y40175
X26275Y39767
X26275Y39150
X26325Y38650
X26025Y37750
X25875Y37050
X23625Y36850
X25775Y35800
X23975Y35400
X21025Y35300
X19675Y35000
X18975Y34147
X18990Y33600
X18275Y33535
X18925Y32700
X20375Y31900
X20575Y32400
X21075Y32300
X18625Y31400
X18225Y30850
X16325Y31050
X16175Y30350
X13925Y30150
X16075Y29100
X14275Y28700
X16375Y27900
X18975Y27447
X19675Y28300
X21025Y28600
X19475Y30050
X19475Y30500
X16625Y31950
X16575Y32450
X16575Y33067
X16600Y33475
X16375Y34600
X14275Y35400
X16075Y35800
X13925Y36850
X16175Y37050
X16325Y37750
X18225Y37550
X18625Y38100
X19475Y37200
X19475Y36750
X20375Y38600
X20575Y39100
X21075Y39000
X18925Y39400
X18990Y40300
X18975Y40847
X18275Y40235
X16600Y40175
X16575Y39767
X16575Y39150
X16625Y38650
X14075Y40350
X16375Y41300
X16075Y42500
X14275Y42100
X11325Y42000
X9975Y41700
X9275Y40847
X9290Y40300
X8575Y40235
X9225Y39400
X10875Y39100
X11375Y39000
X10675Y38600
X8925Y38100
X8525Y37550
X9775Y37200
X9775Y36750
X11325Y35300
X9975Y35000
X9275Y34147
X9290Y33600
X8575Y33535
X9225Y32700
X10875Y32400
X11375Y32300
X10675Y31900
X8925Y31400
X8525Y30850
X9775Y30500
X9775Y30050
X11325Y28600
X9975Y28300
X9275Y27447
X9290Y26900
X8575Y26835
X9225Y26000
X10675Y25200
X10875Y25700
X11375Y25600
X14075Y26950
X16600Y26775
X16575Y26367
X16575Y25750
X16625Y25250
X18925Y26000
X18990Y26900
X18275Y26835
X20575Y25700
X21075Y25600
X20375Y25200
X13925Y23450
X11325Y21900
X9975Y21600
X9275Y20747
X9290Y20200
X8575Y20135
X9225Y19300
X10875Y19000
X11375Y18900
X10675Y18500
X8925Y18000
X8525Y17450
X9775Y17100
X9775Y16650
X11325Y15200
X9975Y14900
X6675Y14500
X4575Y15300
X6375Y15700
X4225Y16750
X6475Y16950
X6625Y17650
X6925Y18550
X6875Y19050
X6875Y19667
X6900Y20075
X4375Y20250
X6675Y21200
X4575Y22000
X6375Y22400
X6475Y23650
X6625Y24350
X6925Y25250
X6875Y25750
X6875Y26367
X6900Y26775
X4375Y26950
X6675Y27900
X6375Y29100
X4575Y28700
X4225Y30150
X6475Y30350
X6625Y31050
X6925Y31950
X6875Y32450
X6875Y33067
X6900Y33475
X6675Y34600
X4575Y35400
X6375Y35800
X4225Y36850
X6475Y37050
X6625Y37750
X6925Y38650
X6875Y39150
X6875Y39767
X6900Y40175
X4375Y40350
X6675Y41300
X6375Y42500
X4575Y42100
X19675Y41700
X21025Y42000
X23975Y42100
X25775Y42500
X26075Y41300
X23775Y40350
X29375Y41700
X30725Y42000
X33675Y42100
X35475Y42500
X35775Y41300
X37675Y40235
X38390Y40300
X38375Y40847
X39075Y41700
X40425Y42000
X43375Y42100
X45175Y42500
X45475Y41300
X47375Y40235
X48090Y40300
X48075Y40847
X48775Y41700
X50125Y42000
X53075Y42100
X54875Y42500
X55175Y41300
X57075Y40235
X57790Y40300
X57775Y40847
X58475Y41700
X59825Y42000
X62775Y42100
X64575Y42500
X64875Y41300
X66775Y40235
X67490Y40300
X67475Y40847
X68175Y41700
X69525Y42000
X72475Y42100
X74275Y42500
X74575Y41300
X76475Y40235
X77190Y40300
X77175Y40847
X77875Y41700
X79225Y42000
X82175Y42100
X83975Y42500
X84275Y41300
X86175Y40235
X86890Y40300
X86875Y40847
X87575Y41700
X88925Y42000
X84500Y40175
X84475Y39767
X84475Y39150
X84525Y38650
X84225Y37750
X84075Y37050
X86125Y37550
X86525Y38100
X87375Y37200
X87375Y36750
X88925Y35300
X87575Y35000
X86875Y34147
X86890Y33600
X86175Y33535
X86825Y32700
X88275Y31900
X88475Y32400
X88975Y32300
X86525Y31400
X86125Y30850
X87375Y30500
X87375Y30050
X88925Y28600
X87575Y28300
X86875Y27447
X86890Y26900
X86175Y26835
X86825Y26000
X86525Y24700
X86125Y24150
X87375Y23800
X87375Y23350
X84225Y24350
X84075Y23650
X83975Y22400
X82175Y22000
X84275Y21200
X86175Y20135
X86890Y20200
X86875Y20747
X87575Y21600
X88925Y21900
X84500Y20075
X84475Y19667
X84475Y19050
X84525Y18550
X84225Y17650
X84075Y16950
X86125Y17450
X86525Y18000
X87375Y17100
X87375Y16650
X88925Y15200
X87575Y14900
X86875Y14047
X86890Y13500
X86175Y13435
X86825Y12600
X88275Y11800
X88475Y12300
X88975Y12200
X86525Y11300
X86125Y10750
X87375Y10400
X87375Y9950
X88925Y8500
X87575Y8200
X86875Y7347
X86890Y6800
X86175Y6735
X86825Y5900
X86525Y4600
X86125Y4050
X87375Y3700
X87375Y3250
X84225Y4250
X84075Y3550
X81825Y3350
X84525Y5150
X84475Y5650
X84475Y6267
X84500Y6675
X84275Y7800
X83975Y9000
X82175Y8600
X81825Y10050
X84075Y10250
X84225Y10950
X84525Y11850
X84475Y12350
X84475Y12967
X84500Y13375
X84275Y14500
X82175Y15300
X83975Y15700
X81825Y16750
X79225Y15200
X77875Y14900
X77175Y14047
X77190Y13500
X76475Y13435
X77125Y12600
X78775Y12300
X79275Y12200
X78575Y11800
X76825Y11300
X76425Y10750
X77675Y10400
X77675Y9950
X79225Y8500
X77875Y8200
X77175Y7347
X77190Y6800
X76475Y6735
X77125Y5900
X78575Y5100
X78775Y5600
X79275Y5500
X81975Y6850
X76825Y4600
X76425Y4050
X77675Y3700
X77675Y3250
X74525Y4250
X74375Y3550
X72125Y3350
X74825Y5150
X74775Y5650
X74775Y6267
X74800Y6675
X72275Y6850
X74575Y7800
X74275Y9000
X72475Y8600
X72125Y10050
X74375Y10250
X74525Y10950
X74825Y11850
X74775Y12350
X74775Y12967
X74800Y13375
X74575Y14500
X72475Y15300
X74275Y15700
X72125Y16750
X74375Y16950
X74525Y17650
X74825Y18550
X74775Y19050
X74775Y19667
X74800Y20075
X76475Y20135
X77190Y20200
X77175Y20747
X77875Y21600
X79225Y21900
X81975Y20250
X79275Y18900
X78775Y19000
X78575Y18500
X77125Y19300
X76825Y18000
X76425Y17450
X77675Y17100
X77675Y16650
X81975Y13550
X72275Y13550
X69575Y12200
X69075Y12300
X68875Y11800
X67425Y12600
X67490Y13500
X67475Y14047
X66775Y13435
X65100Y13375
X65075Y12967
X65075Y12350
X65125Y11850
X64825Y10950
X64675Y10250
X66725Y10750
X67125Y11300
X67975Y10400
X67975Y9950
X69525Y8500
X68175Y8200
X67475Y7347
X67490Y6800
X66775Y6735
X65100Y6675
X65075Y6267
X65075Y5650
X65125Y5150
X64825Y4250
X66725Y4050
X67125Y4600
X67975Y3700
X67975Y3250
X68875Y5100
X69075Y5600
X69575Y5500
X67425Y5900
X64875Y7800
X64575Y9000
X62775Y8600
X59825Y8500
X58475Y8200
X57775Y7347
X57790Y6800
X57075Y6735
X57725Y5900
X57425Y4600
X57025Y4050
X58275Y3700
X58275Y3250
X55125Y4250
X54975Y3550
X52725Y3350
X55425Y5150
X55375Y5650
X55375Y6267
X55400Y6675
X52875Y6850
X55175Y7800
X54875Y9000
X53075Y8600
X52725Y10050
X54975Y10250
X55125Y10950
X55425Y11850
X55375Y12350
X55375Y12967
X55400Y13375
X55175Y14500
X57075Y13435
X57790Y13500
X57775Y14047
X58475Y14900
X59825Y15200
X62775Y15300
X64575Y15700
X62425Y16750
X64675Y16950
X64825Y17650
X66725Y17450
X67125Y18000
X67975Y17100
X67975Y16650
X69525Y15200
X68175Y14900
X64875Y14500
X62575Y13550
X59875Y12200
X59375Y12300
X59175Y11800
X57725Y12600
X57425Y11300
X57025Y10750
X58275Y10400
X58275Y9950
X62425Y10050
X62575Y6850
X59875Y5500
X59375Y5600
X59175Y5100
X62425Y3350
X64675Y3550
X50175Y5500
X49675Y5600
X49475Y5100
X48025Y5900
X48090Y6800
X47375Y6735
X45700Y6675
X45675Y6267
X45675Y5650
X45725Y5150
X45425Y4250
X45275Y3550
X47325Y4050
X48575Y3700
X48575Y3250
X47725Y4600
X43025Y3350
X39775Y5100
X39975Y5600
X40475Y5500
X38325Y5900
X38390Y6800
X37675Y6735
X38375Y7347
X39075Y8200
X40425Y8500
X38875Y9950
X38875Y10400
X37625Y10750
X38025Y11300
X39775Y11800
X39975Y12300
X40475Y12200
X38325Y12600
X38390Y13500
X38375Y14047
X37675Y13435
X36000Y13375
X35975Y12967
X35975Y12350
X36025Y11850
X35725Y10950
X35575Y10250
X35475Y9000
X35775Y7800
X33675Y8600
X33325Y10050
X33475Y6850
X36000Y6675
X35975Y6267
X35975Y5650
X36025Y5150
X35725Y4250
X35575Y3550
X37625Y4050
X38875Y3700
X38875Y3250
X38025Y4600
X33325Y3350
X23625Y3350
X19475Y3250
X19475Y3700
X33475Y13550
X35775Y14500
X33675Y15300
X35475Y15700
X35575Y16950
X35725Y17650
X36025Y18550
X35975Y19050
X35975Y19667
X36000Y20075
X37675Y20135
X38390Y20200
X38375Y20747
X39075Y21600
X40425Y21900
X43375Y22000
X45175Y22400
X45275Y23650
X45425Y24350
X45725Y25250
X45675Y25750
X45675Y26367
X45700Y26775
X47375Y26835
X48090Y26900
X48075Y27447
X48775Y28300
X50125Y28600
X48575Y30050
X48575Y30500
X47325Y30850
X47725Y31400
X49475Y31900
X49675Y32400
X50175Y32300
X48025Y32700
X48090Y33600
X48075Y34147
X47375Y33535
X45700Y33475
X45675Y33067
X45675Y32450
X45725Y31950
X45425Y31050
X45275Y30350
X43025Y30150
X45175Y29100
X45475Y27900
X43375Y28700
X43175Y26950
X40475Y25600
X39975Y25700
X39775Y25200
X38325Y26000
X38025Y24700
X37625Y24150
X38875Y23800
X38875Y23350
X43025Y23450
X47325Y24150
X48575Y23800
X48575Y23350
X47725Y24700
X49475Y25200
X49675Y25700
X50175Y25600
X48025Y26000
X52875Y26950
X55400Y26775
X55375Y26367
X55375Y25750
X55425Y25250
X55125Y24350
X54975Y23650
X54875Y22400
X53075Y22000
X55175Y21200
X57075Y20135
X57790Y20200
X57775Y20747
X58475Y21600
X59825Y21900
X62775Y22000
X64575Y22400
X64675Y23650
X64825Y24350
X66725Y24150
X67125Y24700
X67975Y23800
X67975Y23350
X68175Y21600
X69525Y21900
X67475Y20747
X67490Y20200
X66775Y20135
X65100Y20075
X65075Y19667
X65075Y19050
X65125Y18550
X67425Y19300
X68875Y18500
X69075Y19000
X69575Y18900
X72275Y20250
X74575Y21200
X72475Y22000
X74275Y22400
X74375Y23650
X74525Y24350
X74825Y25250
X74775Y25750
X74775Y26367
X74800Y26775
X76475Y26835
X77190Y26900
X77175Y27447
X77875Y28300
X79225Y28600
X77675Y30050
X77675Y30500
X76425Y30850
X76825Y31400
X78575Y31900
X78775Y32400
X79275Y32300
X77125Y32700
X77190Y33600
X77175Y34147
X76475Y33535
X74800Y33475
X74775Y33067
X74775Y32450
X74825Y31950
X74525Y31050
X74375Y30350
X72125Y30150
X74275Y29100
X74575Y27900
X72475Y28700
X69525Y28600
X68175Y28300
X67475Y27447
X67490Y26900
X66775Y26835
X65100Y26775
X65075Y26367
X65075Y25750
X65125Y25250
X67425Y26000
X68875Y25200
X69075Y25700
X69575Y25600
X72275Y26950
X76825Y24700
X76425Y24150
X77675Y23800
X77675Y23350
X78575Y25200
X78775Y25700
X79275Y25600
X77125Y26000
X81975Y26950
X84275Y27900
X83975Y29100
X82175Y28700
X81825Y30150
X84075Y30350
X84225Y31050
X84525Y31950
X84475Y32450
X84475Y33067
X84500Y33475
X84275Y34600
X82175Y35400
X83975Y35800
X81825Y36850
X79225Y35300
X77875Y35000
X74575Y34600
X72475Y35400
X74275Y35800
X72125Y36850
X74375Y37050
X74525Y37750
X74825Y38650
X74775Y39150
X74775Y39767
X74800Y40175
X72275Y40350
X69575Y39000
X69075Y39100
X68875Y38600
X67425Y39400
X65075Y39150
X65125Y38650
X64825Y37750
X64675Y37050
X66725Y37550
X67125Y38100
X67975Y37200
X67975Y36750
X69525Y35300
X68175Y35000
X67475Y34147
X67490Y33600
X66775Y33535
X65100Y33475
X65075Y33067
X65075Y32450
X65125Y31950
X64825Y31050
X64675Y30350
X66725Y30850
X67125Y31400
X67975Y30500
X67975Y30050
X68875Y31900
X69075Y32400
X69575Y32300
X67425Y32700
X64875Y34600
X64575Y35800
X62775Y35400
X59825Y35300
X58475Y35000
X57775Y34147
X57790Y33600
X57075Y33535
X57725Y32700
X59175Y31900
X59375Y32400
X59875Y32300
X57425Y31400
X57025Y30850
X58275Y30500
X58275Y30050
X59825Y28600
X58475Y28300
X57775Y27447
X57790Y26900
X57075Y26835
X57725Y26000
X57425Y24700
X57025Y24150
X58275Y23800
X58275Y23350
X59175Y25200
X59375Y25700
X59875Y25600
X62575Y26950
X64875Y27900
X64575Y29100
X62775Y28700
X62425Y30150
X55425Y31950
X55375Y32450
X55375Y33067
X55400Y33475
X55175Y34600
X53075Y35400
X54875Y35800
X52725Y36850
X54975Y37050
X55125Y37750
X55425Y38650
X55375Y39150
X55375Y39767
X55400Y40175
X57725Y39400
X59175Y38600
X59375Y39100
X59875Y39000
X57425Y38100
X57025Y37550
X58275Y37200
X58275Y36750
X62425Y36850
X62575Y33650
X55125Y31050
X54975Y30350
X52725Y30150
X54875Y29100
X55175Y27900
X53075Y28700
X52875Y33650
X50125Y35300
X48775Y35000
X48575Y36750
X48575Y37200
X47325Y37550
X47725Y38100
X49475Y38600
X49675Y39100
X50175Y39000
X48025Y39400
X45675Y39150
X45725Y38650
X45425Y37750
X45275Y37050
X43025Y36850
X45175Y35800
X43375Y35400
X45475Y34600
X43175Y33650
X40425Y35300
X39075Y35000
X35775Y34600
X33675Y35400
X35475Y35800
X35575Y37050
X35725Y37750
X36025Y38650
X35975Y39150
X35975Y39767
X36000Y40175
X38325Y39400
X39775Y38600
X39975Y39100
X40475Y39000
X38025Y38100
X37625Y37550
X38875Y37200
X38875Y36750
X33325Y36850
X33475Y33650
X30775Y32300
X30275Y32400
X30075Y31900
X28625Y32700
X28325Y31400
X27925Y30850
X29175Y30500
X29175Y30050
X33475Y26950
X33325Y23450
X35775Y21200
X33475Y20250
X30775Y18900
X30275Y19000
X30075Y18500
X28625Y19300
X28325Y18000
X27925Y17450
X29175Y17100
X29175Y16650
X30725Y15200
X29375Y14900
X33325Y16750
X37625Y17450
X38025Y18000
X38875Y17100
X38875Y16650
X40425Y15200
X39075Y14900
X43175Y13550
X45475Y14500
X45700Y13375
X45675Y12967
X45675Y12350
X45725Y11850
X45425Y10950
X45275Y10250
X47325Y10750
X47725Y11300
X49475Y11800
X49675Y12300
X50175Y12200
X48025Y12600
X48090Y13500
X48075Y14047
X47375Y13435
X48775Y14900
X50125Y15200
X48575Y16650
X48575Y17100
X47325Y17450
X47725Y18000
X49475Y18500
X49675Y19000
X50175Y18900
X48025Y19300
X48090Y20200
X48075Y20747
X47375Y20135
X45700Y20075
X45675Y19667
X45675Y19050
X45725Y18550
X45425Y17650
X45275Y16950
X43025Y16750
X45175Y15700
X43375Y15300
X39775Y18500
X39975Y19000
X40475Y18900
X38325Y19300
X43175Y20250
X45475Y21200
X48775Y21600
X50125Y21900
X52875Y20250
X55400Y20075
X55375Y19667
X55375Y19050
X55425Y18550
X55125Y17650
X54975Y16950
X57025Y17450
X57425Y18000
X58275Y17100
X58275Y16650
X54875Y15700
X53075Y15300
X52725Y16750
X57725Y19300
X59175Y18500
X59375Y19000
X59875Y18900
X62575Y20250
X64875Y21200
X62425Y23450
X52725Y23450
X72125Y23450
X81825Y23450
X84525Y25250
X84475Y25750
X84475Y26367
X84500Y26775
X88275Y25200
X88475Y25700
X88975Y25600
X86825Y19300
X88275Y18500
X88475Y19000
X88975Y18900
X88475Y5600
X88975Y5500
X88275Y5100
X52875Y13550
X48575Y10400
X48575Y9950
X50125Y8500
X48775Y8200
X48075Y7347
X45475Y7800
X45175Y9000
X43375Y8600
X43025Y10050
X43175Y6850
X9775Y23350
X9775Y23800
X8525Y24150
X8925Y24700
X4225Y23450
X4375Y13550
X4375Y33650
X14075Y33650
X23775Y33650
X33475Y40350
X43175Y40350
X45700Y40175
X45675Y39767
X52875Y40350
X62575Y40350
X65100Y40175
X65075Y39767
X76425Y37550
X76825Y38100
X77675Y37200
X77675Y36750
X78575Y38600
X78775Y39100
X79275Y39000
X77125Y39400
X81975Y40350
X86825Y39400
X88275Y38600
X88475Y39100
X88975Y39000
X81975Y33650
X72275Y33650
T03
X73706Y34038
X73706Y31762
X64006Y31762
X64006Y34038
X64006Y38462
X64006Y40738
X73706Y40738
X73706Y38462
X83406Y38462
X83406Y40738
X83406Y34038
X83406Y31762
X83406Y27338
X83406Y25062
X83406Y20638
X83406Y18362
X83406Y13938
X83406Y11662
X83406Y7238
X83406Y4962
X73706Y4962
X73706Y7238
X64006Y7238
X64006Y4962
X54306Y4962
X54306Y7238
X44606Y7238
X44606Y4962
X34906Y4962
X34906Y7238
X34906Y11662
X34906Y13938
X34906Y18362
X34906Y20638
X34906Y25062
X34906Y27338
X34906Y31762
X34906Y34038
X34906Y38462
X34906Y40738
X25206Y40738
X25206Y38462
X15506Y38462
X15506Y40738
X5806Y40738
X5806Y38462
X5806Y34038
X5806Y31762
X5806Y27338
X5806Y25062
X5806Y20638
X5806Y18362
X5806Y13938
X5806Y11662
X5806Y7238
X5806Y4962
X15506Y4962
X15506Y7238
X25206Y7238
X25206Y4962
X25206Y11662
X25206Y13938
X15506Y13938
X15506Y11662
X15506Y18362
X15506Y20638
X15506Y25062
X15506Y27338
X25206Y27338
X25206Y25062
X25206Y20638
X25206Y18362
X44606Y18362
X44606Y20638
X44606Y25062
X44606Y27338
X54306Y27338
X54306Y25062
X54306Y20638
X54306Y18362
X54306Y13938
X54306Y11662
X44606Y11662
X44606Y13938
X64006Y13938
X64006Y11662
X73706Y11662
X73706Y13938
X73706Y18362
X73706Y20638
X73706Y25062
X73706Y27338
X64006Y27338
X64006Y25062
X64006Y20638
X64006Y18362
X54306Y31762
X54306Y34038
X44606Y34038
X44606Y31762
X44606Y38462
X44606Y40738
X54306Y40738
X54306Y38462
X25206Y34038
X25206Y31762
X15506Y31762
X15506Y34038
M30
